<svg width="143" height="17" viewBox="0 0 143 17" fill="none" xmlns="http://www.w3.org/2000/svg">
<path d="M17.791 16H13.835V6.01796L9.948 16H8.20001L4.336 6.01796V16H0.380005V0.658955H5.87701L9.07401 8.98496L12.294 0.658955H17.791V16Z" fill="url(#paint0_linear_429_2)"/>
<path d="M24.5059 16H20.5499V0.658955H24.5059V16Z" fill="url(#paint1_linear_429_2)"/>
<path d="M33.7287 16H27.2657V0.658955H33.7057C36.1591 0.658955 38.1524 1.34896 39.6857 2.72896C41.2344 4.10896 42.0087 5.97196 42.0087 8.31796C42.0087 10.664 41.2344 12.5346 39.6857 13.93C38.1524 15.31 36.1667 16 33.7287 16ZM33.7057 12.55C35.0091 12.55 36.0441 12.1436 36.8107 11.331C37.5774 10.503 37.9607 9.49862 37.9607 8.31796C37.9607 7.07596 37.5927 6.06396 36.8567 5.28196C36.1207 4.49996 35.0781 4.10896 33.7287 4.10896H31.2217V12.55H33.7057Z" fill="url(#paint2_linear_429_2)"/>
<path d="M47.9327 16H43.9767V0.658955H47.9327V16Z" fill="url(#paint3_linear_429_2)"/>
<path d="M62.2813 16.276C59.4446 16.276 57.1753 15.4633 55.4733 13.838L57.5663 10.871C58.9156 12.2203 60.5486 12.895 62.4653 12.895C63.1399 12.895 63.6689 12.78 64.0523 12.55C64.4509 12.3046 64.6503 11.998 64.6503 11.63C64.6503 11.308 64.4356 11.0473 64.0063 10.848C63.5769 10.6333 63.0403 10.48 62.3963 10.388C61.7523 10.2806 61.0546 10.1196 60.3033 9.90496C59.5519 9.67496 58.8543 9.41429 58.2103 9.12296C57.5663 8.81629 57.0296 8.33329 56.6003 7.67396C56.1709 7.01462 55.9563 6.22496 55.9563 5.30496C55.9563 3.95562 56.5006 2.80562 57.5893 1.85496C58.6933 0.904289 60.1883 0.428955 62.0743 0.428955C64.5736 0.428955 66.6513 1.14196 68.3073 2.56796L66.1453 5.39696C64.8573 4.33896 63.3623 3.80996 61.6603 3.80996C60.5563 3.80996 60.0043 4.17796 60.0043 4.91396C60.0043 5.20529 60.2189 5.45829 60.6483 5.67296C61.0776 5.87229 61.6143 6.02562 62.2583 6.13296C62.9023 6.24029 63.5923 6.40896 64.3283 6.63896C65.0796 6.85362 65.7773 7.11429 66.4213 7.42096C67.0653 7.72762 67.6019 8.20296 68.0313 8.84696C68.4606 9.49096 68.6753 10.2576 68.6753 11.147C68.6753 12.711 68.1156 13.9606 66.9963 14.896C65.8769 15.816 64.3053 16.276 62.2813 16.276Z" fill="url(#paint4_linear_429_2)"/>
<path d="M78.4429 16H74.4869V9.81296L68.6679 0.658955H73.1299L76.4649 6.31696L79.7539 0.658955H84.2389L78.4429 9.81296V16Z" fill="url(#paint5_linear_429_2)"/>
<path d="M90.627 16.276C87.7903 16.276 85.521 15.4633 83.819 13.838L85.912 10.871C87.2613 12.2203 88.8943 12.895 90.811 12.895C91.4856 12.895 92.0146 12.78 92.398 12.55C92.7966 12.3046 92.996 11.998 92.996 11.63C92.996 11.308 92.7813 11.0473 92.352 10.848C91.9226 10.6333 91.386 10.48 90.742 10.388C90.098 10.2806 89.4003 10.1196 88.649 9.90496C87.8976 9.67496 87.2 9.41429 86.556 9.12296C85.912 8.81629 85.3753 8.33329 84.946 7.67396C84.5166 7.01462 84.302 6.22496 84.302 5.30496C84.302 3.95562 84.8463 2.80562 85.935 1.85496C87.039 0.904289 88.534 0.428955 90.42 0.428955C92.9193 0.428955 94.997 1.14196 96.653 2.56796L94.491 5.39696C93.203 4.33896 91.708 3.80996 90.006 3.80996C88.902 3.80996 88.35 4.17796 88.35 4.91396C88.35 5.20529 88.5646 5.45829 88.994 5.67296C89.4233 5.87229 89.96 6.02562 90.604 6.13296C91.248 6.24029 91.938 6.40896 92.674 6.63896C93.4253 6.85362 94.123 7.11429 94.767 7.42096C95.411 7.72762 95.9476 8.20296 96.377 8.84696C96.8063 9.49096 97.021 10.2576 97.021 11.147C97.021 12.711 96.4613 13.9606 95.342 14.896C94.2226 15.816 92.651 16.276 90.627 16.276Z" fill="url(#paint6_linear_429_2)"/>
<path d="M105.872 16H101.916V4.10896H97.6154V0.658955H110.15V4.10896H105.872V16Z" fill="url(#paint7_linear_429_2)"/>
<path d="M123.28 16H112.033V0.658955H123.28V4.10896H115.989V6.50096H123.119V9.95096H115.989V12.55H123.28V16Z" fill="url(#paint8_linear_429_2)"/>
<path d="M142.988 16H139.032V6.01796L135.145 16H133.397L129.533 6.01796V16H125.577V0.658955H131.074L134.271 8.98496L137.491 0.658955H142.988V16Z" fill="url(#paint9_linear_429_2)"/>
<defs>
<linearGradient id="paint0_linear_429_2" x1="89.2611" y1="-15.7692" x2="44.0382" y2="34.2073" gradientUnits="userSpaceOnUse">
<stop stop-color="#DA0404"/>
<stop offset="1" stop-color="#044CDA"/>
</linearGradient>
<linearGradient id="paint1_linear_429_2" x1="89.2611" y1="-15.7692" x2="44.0382" y2="34.2073" gradientUnits="userSpaceOnUse">
<stop stop-color="#DA0404"/>
<stop offset="1" stop-color="#044CDA"/>
</linearGradient>
<linearGradient id="paint2_linear_429_2" x1="89.2611" y1="-15.7692" x2="44.0382" y2="34.2073" gradientUnits="userSpaceOnUse">
<stop stop-color="#DA0404"/>
<stop offset="1" stop-color="#044CDA"/>
</linearGradient>
<linearGradient id="paint3_linear_429_2" x1="89.2611" y1="-15.7692" x2="44.0382" y2="34.2073" gradientUnits="userSpaceOnUse">
<stop stop-color="#DA0404"/>
<stop offset="1" stop-color="#044CDA"/>
</linearGradient>
<linearGradient id="paint4_linear_429_2" x1="89.2611" y1="-15.7692" x2="44.0382" y2="34.2073" gradientUnits="userSpaceOnUse">
<stop stop-color="#DA0404"/>
<stop offset="1" stop-color="#044CDA"/>
</linearGradient>
<linearGradient id="paint5_linear_429_2" x1="89.2611" y1="-15.7692" x2="44.0382" y2="34.2073" gradientUnits="userSpaceOnUse">
<stop stop-color="#DA0404"/>
<stop offset="1" stop-color="#044CDA"/>
</linearGradient>
<linearGradient id="paint6_linear_429_2" x1="89.2611" y1="-15.7692" x2="44.0382" y2="34.2073" gradientUnits="userSpaceOnUse">
<stop stop-color="#DA0404"/>
<stop offset="1" stop-color="#044CDA"/>
</linearGradient>
<linearGradient id="paint7_linear_429_2" x1="89.2611" y1="-15.7692" x2="44.0382" y2="34.2073" gradientUnits="userSpaceOnUse">
<stop stop-color="#DA0404"/>
<stop offset="1" stop-color="#044CDA"/>
</linearGradient>
<linearGradient id="paint8_linear_429_2" x1="89.2611" y1="-15.7692" x2="44.0382" y2="34.2073" gradientUnits="userSpaceOnUse">
<stop stop-color="#DA0404"/>
<stop offset="1" stop-color="#044CDA"/>
</linearGradient>
<linearGradient id="paint9_linear_429_2" x1="89.2611" y1="-15.7692" x2="44.0382" y2="34.2073" gradientUnits="userSpaceOnUse">
<stop stop-color="#DA0404"/>
<stop offset="1" stop-color="#044CDA"/>
</linearGradient>
</defs>
</svg>
