<svg width="243" height="58" viewBox="0 0 243 58" fill="none" xmlns="http://www.w3.org/2000/svg">
<path d="M36.144 21.9999H30.64V8.11194L25.232 21.9999H22.8L17.424 8.11194V21.9999H11.92V0.655937H19.568L24.016 12.2399L28.496 0.655937H36.144V21.9999Z" fill="white"/>
<path d="M45.4865 21.9999H39.9825V0.655937H45.4865V21.9999Z" fill="white"/>
<path d="M58.3183 21.9999H49.3262V0.655937H58.2863C61.6996 0.655937 64.4729 1.61594 66.6062 3.53594C68.7609 5.45594 69.8382 8.04794 69.8382 11.3119C69.8382 14.5759 68.7609 17.1786 66.6062 19.1199C64.4729 21.0399 61.7103 21.9999 58.3183 21.9999ZM58.2863 17.1999C60.0996 17.1999 61.5396 16.6346 62.6063 15.5039C63.6729 14.3519 64.2063 12.9546 64.2063 11.3119C64.2063 9.58394 63.6943 8.17594 62.6702 7.08794C61.6462 5.99994 60.1956 5.45594 58.3183 5.45594H54.8302V17.1999H58.2863Z" fill="white"/>
<path d="M78.0803 21.9999H72.5762V0.655937H78.0803V21.9999Z" fill="white"/>
<path d="M98.0435 22.3839C94.0968 22.3839 90.9395 21.2533 88.5715 18.9919L91.4835 14.8639C93.3608 16.7413 95.6328 17.6799 98.2995 17.6799C99.2382 17.6799 99.9742 17.5199 100.507 17.1999C101.062 16.8586 101.34 16.4319 101.34 15.9199C101.34 15.4719 101.041 15.1093 100.443 14.8319C99.8462 14.5333 99.0995 14.3199 98.2035 14.1919C97.3075 14.0426 96.3368 13.8186 95.2915 13.5199C94.2462 13.1999 93.2755 12.8373 92.3795 12.4319C91.4835 12.0053 90.7368 11.3333 90.1395 10.4159C89.5422 9.4986 89.2435 8.39994 89.2435 7.11994C89.2435 5.2426 90.0008 3.6426 91.5155 2.31994C93.0515 0.997271 95.1315 0.335938 97.7555 0.335938C101.233 0.335938 104.124 1.32794 106.428 3.31194L103.42 7.24794C101.628 5.77594 99.5475 5.03994 97.1795 5.03994C95.6435 5.03994 94.8755 5.55194 94.8755 6.57594C94.8755 6.98127 95.1742 7.33327 95.7715 7.63194C96.3688 7.90927 97.1155 8.12261 98.0115 8.27194C98.9075 8.42127 99.8675 8.65594 100.892 8.97594C101.937 9.27461 102.907 9.63727 103.803 10.0639C104.699 10.4906 105.446 11.1519 106.044 12.0479C106.641 12.9439 106.939 14.0106 106.939 15.2479C106.939 17.4239 106.161 19.1626 104.604 20.4639C103.046 21.7439 100.86 22.3839 98.0435 22.3839Z" fill="white"/>
<path d="M120.529 21.9999H115.025V13.3919L106.929 0.655937H113.137L117.777 8.52794L122.353 0.655937H128.593L120.529 13.3919V21.9999Z" fill="white"/>
<path d="M137.481 22.3839C133.534 22.3839 130.377 21.2533 128.009 18.9919L130.921 14.8639C132.798 16.7413 135.07 17.6799 137.737 17.6799C138.676 17.6799 139.412 17.5199 139.945 17.1999C140.5 16.8586 140.777 16.4319 140.777 15.9199C140.777 15.4719 140.478 15.1093 139.881 14.8319C139.284 14.5333 138.537 14.3199 137.641 14.1919C136.745 14.0426 135.774 13.8186 134.729 13.5199C133.684 13.1999 132.713 12.8373 131.817 12.4319C130.921 12.0053 130.174 11.3333 129.577 10.4159C128.98 9.4986 128.681 8.39994 128.681 7.11994C128.681 5.2426 129.438 3.6426 130.953 2.31994C132.489 0.997271 134.569 0.335938 137.193 0.335938C140.67 0.335938 143.561 1.32794 145.865 3.31194L142.857 7.24794C141.065 5.77594 138.985 5.03994 136.617 5.03994C135.081 5.03994 134.313 5.55194 134.313 6.57594C134.313 6.98127 134.612 7.33327 135.209 7.63194C135.806 7.90927 136.553 8.12261 137.449 8.27194C138.345 8.42127 139.305 8.65594 140.329 8.97594C141.374 9.27461 142.345 9.63727 143.241 10.0639C144.137 10.4906 144.884 11.1519 145.481 12.0479C146.078 12.9439 146.377 14.0106 146.377 15.2479C146.377 17.4239 145.598 19.1626 144.041 20.4639C142.484 21.7439 140.297 22.3839 137.481 22.3839Z" fill="white"/>
<path d="M158.692 21.9999H153.188V5.45594H147.204V0.655937H164.644V5.45594H158.692V21.9999Z" fill="white"/>
<path d="M182.912 21.9999H167.264V0.655937H182.912V5.45594H172.768V8.78394H182.688V13.5839H172.768V17.1999H182.912V21.9999Z" fill="white"/>
<path d="M210.331 21.9999H204.827V8.11194L199.419 21.9999H196.988L191.611 8.11194V21.9999H186.107V0.655937H193.755L198.204 12.2399L202.684 0.655937H210.331V21.9999Z" fill="white"/>
<path d="M12.552 48.9999V37.5759H21.128V48.9999H19.704V38.8399H13.992V48.9999H12.552Z" fill="white"/>
<path d="M31.5191 44.6959C31.5191 45.4106 31.4231 46.0453 31.2311 46.5999C31.0498 47.1439 30.7831 47.6079 30.4311 47.9919C30.0898 48.3759 29.6685 48.6693 29.1671 48.8719C28.6765 49.0639 28.1271 49.1599 27.5191 49.1599C26.9538 49.1599 26.4311 49.0639 25.9511 48.8719C25.4711 48.6693 25.0551 48.3759 24.7031 47.9919C24.3511 47.6079 24.0738 47.1439 23.8711 46.5999C23.6791 46.0453 23.5831 45.4106 23.5831 44.6959C23.5831 43.7466 23.7431 42.9466 24.0631 42.2959C24.3831 41.6346 24.8418 41.1333 25.4391 40.7919C26.0365 40.4399 26.7458 40.2639 27.5671 40.2639C28.3458 40.2639 29.0285 40.4399 29.6151 40.7919C30.2125 41.1333 30.6765 41.6346 31.0071 42.2959C31.3485 42.9466 31.5191 43.7466 31.5191 44.6959ZM25.0391 44.6959C25.0391 45.3679 25.1245 45.9546 25.2951 46.4559C25.4765 46.9466 25.7538 47.3253 26.1271 47.5919C26.5005 47.8586 26.9751 47.9919 27.5511 47.9919C28.1271 47.9919 28.6018 47.8586 28.9751 47.5919C29.3485 47.3253 29.6205 46.9466 29.7911 46.4559C29.9725 45.9546 30.0631 45.3679 30.0631 44.6959C30.0631 44.0133 29.9725 43.4319 29.7911 42.9519C29.6098 42.4719 29.3325 42.1039 28.9591 41.8479C28.5965 41.5813 28.1218 41.4479 27.5351 41.4479C26.6605 41.4479 26.0258 41.7359 25.6311 42.3119C25.2365 42.8879 25.0391 43.6826 25.0391 44.6959Z" fill="white"/>
<path d="M40.2786 48.9999H38.8546V41.5919H36.3266C36.22 42.9466 36.0866 44.1039 35.9266 45.0639C35.7666 46.0133 35.564 46.7866 35.3186 47.3839C35.0733 47.9813 34.78 48.4186 34.4386 48.6959C34.0973 48.9733 33.6973 49.1119 33.2386 49.1119C33.1 49.1119 32.9613 49.1013 32.8226 49.0799C32.6946 49.0693 32.588 49.0426 32.5026 48.9999V47.9439C32.5666 47.9653 32.636 47.9813 32.7106 47.9919C32.7853 48.0026 32.86 48.0079 32.9346 48.0079C33.1693 48.0079 33.3826 47.9119 33.5746 47.7199C33.7666 47.5279 33.9373 47.2346 34.0866 46.8399C34.2466 46.4453 34.3906 45.9493 34.5186 45.3519C34.6466 44.7439 34.7586 44.0293 34.8546 43.2079C34.9506 42.3866 35.036 41.4586 35.1106 40.4239H40.2786V48.9999Z" fill="white"/>
<path d="M41.6566 40.4239H43.1606L45.0166 45.3039C45.1233 45.5919 45.2193 45.8693 45.3046 46.1359C45.4006 46.4026 45.486 46.6639 45.5606 46.9199C45.6353 47.1653 45.694 47.4053 45.7366 47.6399H45.8006C45.8646 47.3733 45.966 47.0266 46.1046 46.5999C46.2433 46.1626 46.3873 45.7253 46.5366 45.2879L48.2806 40.4239H49.8006L46.1046 50.1839C45.902 50.7173 45.662 51.1813 45.3846 51.5759C45.118 51.9813 44.7873 52.2906 44.3926 52.5039C44.0086 52.7279 43.5393 52.8399 42.9846 52.8399C42.7286 52.8399 42.5046 52.8239 42.3126 52.7919C42.1206 52.7706 41.9553 52.7439 41.8166 52.7119V51.5919C41.934 51.6133 42.0726 51.6346 42.2326 51.6559C42.4033 51.6773 42.5793 51.6879 42.7606 51.6879C43.0913 51.6879 43.374 51.6239 43.6086 51.4959C43.854 51.3786 44.062 51.2026 44.2326 50.9679C44.4033 50.7439 44.5473 50.4773 44.6646 50.1679L45.1126 49.0319L41.6566 40.4239Z" fill="white"/>
<path d="M52.3889 43.5439C52.3889 44.0453 52.5275 44.4186 52.8049 44.6639C53.0929 44.8986 53.5035 45.0159 54.0369 45.0159C54.5702 45.0159 55.0555 44.9359 55.4929 44.7759C55.9302 44.6053 56.3782 44.3813 56.8369 44.1039V40.4239H58.2449V48.9999H56.8369V45.1759C56.3569 45.4853 55.8822 45.7306 55.4129 45.9119C54.9542 46.0826 54.3995 46.1679 53.7489 46.1679C52.8742 46.1679 52.1915 45.9386 51.7009 45.4799C51.2209 45.0213 50.9809 44.4079 50.9809 43.6399V40.4239H52.3889V43.5439Z" fill="white"/>
<path d="M62.2974 45.6559C62.2974 45.7519 62.292 45.8906 62.2814 46.0719C62.2814 46.2426 62.276 46.4293 62.2654 46.6319C62.2547 46.8239 62.244 47.0106 62.2334 47.1919C62.2227 47.3626 62.212 47.5013 62.2014 47.6079L66.7934 40.4239H68.5214V48.9999H67.2094V43.9439C67.2094 43.7733 67.2094 43.5493 67.2094 43.2719C67.22 42.9946 67.2307 42.7226 67.2414 42.4559C67.252 42.1786 67.2627 41.9706 67.2734 41.8319L62.7134 48.9999H60.9694V40.4239H62.2974V45.6559Z" fill="white"/>
<path d="M81.1129 44.6959C81.1129 45.4106 81.0169 46.0453 80.8249 46.5999C80.6435 47.1439 80.3769 47.6079 80.0249 47.9919C79.6835 48.3759 79.2622 48.6693 78.7609 48.8719C78.2702 49.0639 77.7209 49.1599 77.1129 49.1599C76.5475 49.1599 76.0249 49.0639 75.5449 48.8719C75.0649 48.6693 74.6489 48.3759 74.2969 47.9919C73.9449 47.6079 73.6675 47.1439 73.4649 46.5999C73.2729 46.0453 73.1769 45.4106 73.1769 44.6959C73.1769 43.7466 73.3369 42.9466 73.6569 42.2959C73.9769 41.6346 74.4355 41.1333 75.0329 40.7919C75.6302 40.4399 76.3395 40.2639 77.1609 40.2639C77.9395 40.2639 78.6222 40.4399 79.2089 40.7919C79.8062 41.1333 80.2702 41.6346 80.6009 42.2959C80.9422 42.9466 81.1129 43.7466 81.1129 44.6959ZM74.6329 44.6959C74.6329 45.3679 74.7182 45.9546 74.8889 46.4559C75.0702 46.9466 75.3475 47.3253 75.7209 47.5919C76.0942 47.8586 76.5689 47.9919 77.1449 47.9919C77.7209 47.9919 78.1955 47.8586 78.5689 47.5919C78.9422 47.3253 79.2142 46.9466 79.3849 46.4559C79.5662 45.9546 79.6569 45.3679 79.6569 44.6959C79.6569 44.0133 79.5662 43.4319 79.3849 42.9519C79.2035 42.4719 78.9262 42.1039 78.5529 41.8479C78.1902 41.5813 77.7155 41.4479 77.1289 41.4479C76.2542 41.4479 75.6195 41.7359 75.2249 42.3119C74.8302 42.8879 74.6329 43.6826 74.6329 44.6959Z" fill="white"/>
<path d="M89.1081 41.6079H86.3081V48.9999H84.9161V41.6079H82.1481V40.4239H89.1081V41.6079Z" fill="white"/>
<path d="M102.404 40.4239V48.9999H101.14V43.5279C101.14 43.3039 101.145 43.0693 101.156 42.8239C101.177 42.5786 101.198 42.3386 101.22 42.1039H101.172L98.3717 48.9999H97.1878L94.4678 42.1039H94.4198C94.4411 42.3386 94.4518 42.5786 94.4518 42.8239C94.4624 43.0693 94.4678 43.3199 94.4678 43.5759V48.9999H93.2038V40.4239H95.0758L97.7797 47.3199L100.532 40.4239H102.404Z" fill="white"/>
<path d="M103.797 40.4239H105.301L107.157 45.3039C107.264 45.5919 107.36 45.8693 107.445 46.1359C107.541 46.4026 107.627 46.6639 107.701 46.9199C107.776 47.1653 107.835 47.4053 107.877 47.6399H107.941C108.005 47.3733 108.107 47.0266 108.245 46.5999C108.384 46.1626 108.528 45.7253 108.677 45.2879L110.421 40.4239H111.941L108.245 50.1839C108.043 50.7173 107.803 51.1813 107.525 51.5759C107.259 51.9813 106.928 52.2906 106.533 52.5039C106.149 52.7279 105.68 52.8399 105.125 52.8399C104.869 52.8399 104.645 52.8239 104.453 52.7919C104.261 52.7706 104.096 52.7439 103.957 52.7119V51.5919C104.075 51.6133 104.213 51.6346 104.373 51.6559C104.544 51.6773 104.72 51.6879 104.901 51.6879C105.232 51.6879 105.515 51.6239 105.749 51.4959C105.995 51.3786 106.203 51.2026 106.373 50.9679C106.544 50.7439 106.688 50.4773 106.805 50.1679L107.253 49.0319L103.797 40.4239Z" fill="white"/>
<path d="M115.553 40.2639C116.204 40.2639 116.769 40.3546 117.249 40.5359C117.729 40.7066 118.103 40.9626 118.369 41.3039C118.636 41.6346 118.77 42.0399 118.77 42.5199C118.77 43.0426 118.626 43.4586 118.338 43.7679C118.05 44.0666 117.655 44.2853 117.154 44.4239V44.4879C117.495 44.5839 117.81 44.7173 118.098 44.8879C118.386 45.0586 118.615 45.2826 118.785 45.5599C118.967 45.8373 119.058 46.1946 119.058 46.6319C119.058 47.1013 118.924 47.5279 118.658 47.9119C118.402 48.2959 118.002 48.5999 117.458 48.8239C116.924 49.0479 116.236 49.1599 115.394 49.1599C114.988 49.1599 114.599 49.1386 114.226 49.0959C113.863 49.0533 113.532 48.9893 113.233 48.9039C112.945 48.8186 112.689 48.7173 112.465 48.5999V47.3359C112.828 47.5066 113.255 47.6613 113.745 47.7999C114.247 47.9386 114.791 48.0079 115.378 48.0079C115.804 48.0079 116.188 47.9599 116.53 47.8639C116.882 47.7679 117.159 47.6186 117.362 47.4159C117.564 47.2026 117.665 46.9146 117.665 46.5519C117.665 46.2213 117.575 45.9546 117.394 45.7519C117.212 45.5386 116.94 45.3786 116.577 45.2719C116.225 45.1653 115.772 45.1119 115.217 45.1119H114.065V43.9599H114.993C115.729 43.9599 116.316 43.8639 116.754 43.6719C117.202 43.4693 117.425 43.1279 117.425 42.6479C117.425 42.2426 117.255 41.9386 116.913 41.7359C116.583 41.5333 116.103 41.4319 115.474 41.4319C115.004 41.4319 114.588 41.4799 114.226 41.5759C113.874 41.6613 113.484 41.7946 113.058 41.9759L112.562 40.8559C113.02 40.6533 113.5 40.5039 114.002 40.4079C114.503 40.3119 115.02 40.2639 115.553 40.2639Z" fill="white"/>
<path d="M121.141 48.9999V40.4239H122.549V43.9439H124.773C125.52 43.9439 126.133 44.0346 126.613 44.2159C127.093 44.3973 127.451 44.6693 127.685 45.0319C127.92 45.3839 128.037 45.8319 128.037 46.3759C128.037 46.9093 127.92 47.3733 127.685 47.7679C127.461 48.1626 127.104 48.4666 126.613 48.6799C126.133 48.8933 125.499 48.9999 124.709 48.9999H121.141ZM124.581 47.8639C125.189 47.8639 125.685 47.7626 126.069 47.5599C126.453 47.3466 126.645 46.9786 126.645 46.4559C126.645 45.9333 126.469 45.5813 126.117 45.3999C125.765 45.2079 125.259 45.1119 124.597 45.1119H122.549V47.8639H124.581ZM129.461 48.9999V40.4239H130.869V48.9999H129.461Z" fill="white"/>
<path d="M138.666 40.4239H140.202L136.538 44.5519L140.506 48.9999H138.874L135.002 44.6479V48.9999H133.594V40.4239H135.002V44.5839L138.666 40.4239Z" fill="white"/>
<path d="M143.391 45.6559C143.391 45.7519 143.386 45.8906 143.375 46.0719C143.375 46.2426 143.37 46.4293 143.359 46.6319C143.348 46.8239 143.338 47.0106 143.327 47.1919C143.316 47.3626 143.306 47.5013 143.295 47.6079L147.887 40.4239H149.615V48.9999H148.303V43.9439C148.303 43.7733 148.303 43.5493 148.303 43.2719C148.314 42.9946 148.324 42.7226 148.335 42.4559C148.346 42.1786 148.356 41.9706 148.367 41.8319L143.807 48.9999H142.063V40.4239H143.391V45.6559Z" fill="white"/>
<path d="M163.951 40.4239V48.9999H162.687V43.5279C162.687 43.3039 162.692 43.0693 162.703 42.8239C162.724 42.5786 162.745 42.3386 162.767 42.1039H162.719L159.919 48.9999H158.735L156.015 42.1039H155.967C155.988 42.3386 155.999 42.5786 155.999 42.8239C156.009 43.0693 156.015 43.3199 156.015 43.5759V48.9999H154.751V40.4239H156.623L159.327 47.3199L162.079 40.4239H163.951Z" fill="white"/>
<path d="M169.936 40.2799C170.981 40.2799 171.755 40.5093 172.256 40.9679C172.757 41.4266 173.008 42.1573 173.008 43.1599V48.9999H171.984L171.712 47.7839H171.648C171.403 48.0933 171.147 48.3546 170.88 48.5679C170.624 48.7706 170.325 48.9199 169.984 49.0159C169.653 49.1119 169.248 49.1599 168.768 49.1599C168.256 49.1599 167.792 49.0693 167.376 48.8879C166.971 48.7066 166.651 48.4293 166.416 48.0559C166.181 47.6719 166.064 47.1919 166.064 46.6159C166.064 45.7626 166.4 45.1066 167.072 44.6479C167.744 44.1786 168.779 43.9226 170.176 43.8799L171.632 43.8319V43.3199C171.632 42.6053 171.477 42.1093 171.168 41.8319C170.859 41.5546 170.421 41.4159 169.856 41.4159C169.408 41.4159 168.981 41.4853 168.576 41.6239C168.171 41.7519 167.792 41.9013 167.44 42.0719L167.008 41.0159C167.381 40.8133 167.824 40.6426 168.336 40.5039C168.848 40.3546 169.381 40.2799 169.936 40.2799ZM170.352 44.8559C169.285 44.8986 168.544 45.0693 168.128 45.3679C167.723 45.6666 167.52 46.0879 167.52 46.6319C167.52 47.1119 167.664 47.4639 167.952 47.6879C168.251 47.9119 168.629 48.0239 169.088 48.0239C169.813 48.0239 170.416 47.8266 170.896 47.4319C171.376 47.0266 171.616 46.4079 171.616 45.5759V44.8079L170.352 44.8559Z" fill="white"/>
<path d="M180.729 40.4239H182.265L178.601 44.5519L182.569 48.9999H180.937L177.065 44.6479V48.9999H175.657V40.4239H177.065V44.5839L180.729 40.4239Z" fill="white"/>
<path d="M187.253 49.1599C186.496 49.1599 185.818 49.0053 185.221 48.6959C184.634 48.3866 184.17 47.9066 183.829 47.2559C183.498 46.6053 183.333 45.7733 183.333 44.7599C183.333 43.7039 183.509 42.8453 183.861 42.1839C184.213 41.5226 184.688 41.0373 185.285 40.7279C185.893 40.4186 186.581 40.2639 187.349 40.2639C187.786 40.2639 188.208 40.3119 188.613 40.4079C189.018 40.4933 189.349 40.5999 189.605 40.7279L189.173 41.8959C188.917 41.7999 188.618 41.7093 188.277 41.6239C187.936 41.5386 187.616 41.4959 187.317 41.4959C186.741 41.4959 186.266 41.6186 185.893 41.8639C185.52 42.1093 185.242 42.4719 185.061 42.9519C184.88 43.4319 184.789 44.0293 184.789 44.7439C184.789 45.4266 184.88 46.0079 185.061 46.4879C185.242 46.9679 185.514 47.3306 185.877 47.5759C186.24 47.8213 186.693 47.9439 187.237 47.9439C187.706 47.9439 188.117 47.8959 188.469 47.7999C188.832 47.7039 189.162 47.5866 189.461 47.4479V48.6959C189.173 48.8453 188.853 48.9573 188.501 49.0319C188.16 49.1173 187.744 49.1599 187.253 49.1599Z" fill="white"/>
<path d="M192.829 45.6559C192.829 45.7519 192.823 45.8906 192.813 46.0719C192.813 46.2426 192.807 46.4293 192.797 46.6319C192.786 46.8239 192.775 47.0106 192.765 47.1919C192.754 47.3626 192.743 47.5013 192.733 47.6079L197.325 40.4239H199.053V48.9999H197.741V43.9439C197.741 43.7733 197.741 43.5493 197.741 43.2719C197.751 42.9946 197.762 42.7226 197.773 42.4559C197.783 42.1786 197.794 41.9706 197.805 41.8319L193.245 48.9999H191.501V40.4239H192.829V45.6559Z" fill="white"/>
<path d="M210.982 40.4239V48.9999H209.718V43.5279C209.718 43.3039 209.723 43.0693 209.734 42.8239C209.755 42.5786 209.777 42.3386 209.798 42.1039H209.75L206.95 48.9999H205.766L203.046 42.1039H202.998C203.019 42.3386 203.03 42.5786 203.03 42.8239C203.041 43.0693 203.046 43.3199 203.046 43.5759V48.9999H201.782V40.4239H203.654L206.358 47.3199L209.11 40.4239H210.982Z" fill="white"/>
<path d="M212.375 40.4239H213.879L215.735 45.3039C215.842 45.5919 215.938 45.8693 216.023 46.1359C216.119 46.4026 216.205 46.6639 216.279 46.9199C216.354 47.1653 216.413 47.4053 216.455 47.6399H216.519C216.583 47.3733 216.685 47.0266 216.823 46.5999C216.962 46.1626 217.106 45.7253 217.255 45.2879L218.999 40.4239H220.519L216.823 50.1839C216.621 50.7173 216.381 51.1813 216.103 51.5759C215.837 51.9813 215.506 52.2906 215.111 52.5039C214.727 52.7279 214.258 52.8399 213.703 52.8399C213.447 52.8399 213.223 52.8239 213.031 52.7919C212.839 52.7706 212.674 52.7439 212.535 52.7119V51.5919C212.653 51.6133 212.791 51.6346 212.951 51.6559C213.122 51.6773 213.298 51.6879 213.479 51.6879C213.81 51.6879 214.093 51.6239 214.327 51.4959C214.573 51.3786 214.781 51.2026 214.951 50.9679C215.122 50.7439 215.266 50.4773 215.383 50.1679L215.831 49.0319L212.375 40.4239Z" fill="white"/>
<path d="M231.076 40.4239V48.9999H229.812V43.5279C229.812 43.3039 229.817 43.0693 229.828 42.8239C229.849 42.5786 229.87 42.3386 229.892 42.1039H229.844L227.044 48.9999H225.86L223.14 42.1039H223.092C223.113 42.3386 223.124 42.5786 223.124 42.8239C223.134 43.0693 223.14 43.3199 223.14 43.5759V48.9999H221.876V40.4239H223.748L226.452 47.3199L229.204 40.4239H231.076Z" fill="white"/>
</svg>
